<svg xmlns="http://www.w3.org/2000/svg" xmlns:svg="http://www.w3.org/2000/svg" xmlns:xlink="http://www.w3.org/1999/xlink" id="svg1941" width="1280" height="1280" version="1.1" viewBox="0 0 338.667 338.667"><defs id="defs1935"><linearGradient id="linearGradient1711" x1="193.935" x2="198.69" y1="166.829" y2="223.348" gradientTransform="matrix(2.9246215,0.26616144,-0.26616144,2.9246215,-362.73883,-420.47419)" gradientUnits="userSpaceOnUse" xlink:href="#linearGradient1709"/><linearGradient id="linearGradient1709"><stop style="stop-color:#000;stop-opacity:1" id="stop1705" offset="0"/><stop style="stop-color:#fff9f9;stop-opacity:0" id="stop1707" offset="1"/></linearGradient><linearGradient id="linearGradient1909" x1="167.82" x2="270.552" y1="76.9" y2="64.205" gradientTransform="matrix(1.4946392,0.13602298,-0.13602298,1.4946392,-183.8555,-50.608348)" gradientUnits="userSpaceOnUse" xlink:href="#linearGradient1709"/></defs><metadata id="metadata1938"/><g id="layer1" transform="translate(0,41.666687)"><path style="fill:url(#linearGradient1711);fill-opacity:1;stroke:none;stroke-width:.60000002;stroke-linecap:butt;stroke-linejoin:miter;stroke-miterlimit:4;stroke-dasharray:none;stroke-opacity:1" id="path1703" d="M 159.61346,205.32505 314.47544,246.76091 173.19556,290.77435 18.333324,248.69015 Z"/><path style="fill:url(#linearGradient1909);fill-opacity:1;stroke:none;stroke-width:.6;stroke-linecap:butt;stroke-linejoin:miter;stroke-miterlimit:4;stroke-dasharray:none;stroke-opacity:1" id="path1901" d="m 159.61341,-34.911946 -9e-5,240.177036 154.86212,41.49582 c 1e-5,-80.05943 0.4784,-159.244987 0.47842,-252.6118514 z"/><g id="g1594" transform="matrix(-2.9246227,-0.26616143,0.26616143,-2.9246227,761.45663,638.7985)" style="fill:none;fill-opacity:1;stroke:none;stroke-width:1.17682752;stroke-miterlimit:4;stroke-dasharray:none;stroke-opacity:1"><path id="path1500" d="m 116.43625,146.61293 c 2.47078,27.14929 4.94156,54.29859 7.41234,81.44788" transform="translate(101.05408,-17.98956)" style="fill:none;fill-opacity:1;stroke:none;stroke-width:1.17682752;stroke-linecap:butt;stroke-linejoin:miter;stroke-miterlimit:4;stroke-dasharray:none;stroke-opacity:1"/><path id="path1512" d="m 116.43625,146.61293 c 15.51801,-6.4219 31.03601,-12.8438 46.55402,-19.2657" transform="translate(101.05408,-17.98956)" style="fill:none;fill-opacity:1;stroke:none;stroke-width:1.17682752;stroke-linecap:butt;stroke-linejoin:miter;stroke-miterlimit:4;stroke-dasharray:none;stroke-opacity:1"/><path id="path1516" d="M 116.43625,146.61293 C 98.503983,143.51549 80.571715,140.41805 62.639448,137.32061" transform="translate(101.05408,-17.98956)" style="fill:none;fill-opacity:1;stroke:none;stroke-width:1.17682752;stroke-linecap:butt;stroke-linejoin:miter;stroke-miterlimit:4;stroke-dasharray:none;stroke-opacity:1"/></g><g style="font-style:normal;font-variant:normal;font-weight:400;font-stretch:normal;font-size:15.16345215px;line-height:1.25;font-family:'Noto Sans';-inkscape-font-specification:'Noto Sans';letter-spacing:0;word-spacing:0;fill:#000;fill-opacity:1;stroke:none;stroke-width:.71078265" id="text1719" aria-label="N" transform="skewY(-17.253538)"><path style="font-style:normal;font-variant:normal;font-weight:700;font-stretch:normal;font-size:136.47053528px;font-family:'Atkinson Hyperlegible';-inkscape-font-specification:'Atkinson Hyperlegible Bold';stroke-width:.71078265" id="path832" d="m 84.268014,134.86107 35.209396,64.95998 v -64.95998 h 20.87999 v 91.16232 H 112.79036 L 77.580958,161.06342 v 64.95997 H 56.837437 v -91.16232 z"/></g><rect style="opacity:1;fill:#bebebe;fill-opacity:1;stroke:none;stroke-width:0;stroke-linecap:butt;stroke-linejoin:miter;stroke-miterlimit:4;stroke-dasharray:none;stroke-opacity:1" id="rect1733-5-9" width="86.086" height="12.643" x="184.89" y="97.084" ry="2.271" transform="matrix(0.96689241,0.25518436,0,1,0,0)"/><path style="opacity:1;fill:#bebebe;fill-opacity:1;stroke:none;stroke-width:0;stroke-linecap:butt;stroke-linejoin:miter;stroke-miterlimit:4;stroke-dasharray:none;stroke-opacity:1" id="rect1733-5-9-9" d="m 180.7956,168.9455 99.07652,26.47623 c 1.12309,0.30013 2.02724,1.48857 2.02724,2.66468 v 7.5757 c 0,1.17612 -0.90415,1.88134 -2.02724,1.58121 L 180.7956,180.76709 c -1.12309,-0.30012 -2.02724,-1.48857 -2.02724,-2.66468 v -7.5757 c 0,-1.17611 0.90415,-1.88133 2.02724,-1.58121 z"/><path style="opacity:1;fill:#bebebe;fill-opacity:1;stroke:none;stroke-width:0;stroke-linecap:butt;stroke-linejoin:miter;stroke-miterlimit:4;stroke-dasharray:none;stroke-opacity:1" id="rect1733-5-9-9-0" d="m 180.7956,122.33164 99.07639,26.47589 c 1.12309,0.30012 2.02724,1.48855 2.02724,2.66465 v 7.5756 c 0,1.1761 -0.90415,1.88131 -2.02724,1.58119 L 180.7956,134.15308 c -1.12309,-0.30012 -2.02724,-1.48855 -2.02724,-2.66465 v -7.57561 c 0,-1.17609 0.90415,-1.8813 2.02724,-1.58118 z"/></g></svg>